<svg width="1058" height="387" viewBox="0 0 1058 387" fill="none" xmlns="http://www.w3.org/2000/svg">
<path d="M68.0341 117.977H28.0036V158.004H68.0341V117.977ZM28.0036 168.485L28 265.613L68.0341 265.616L68.0271 168.489L28.0036 168.485ZM827.569 166.945C803.952 166.945 789.897 174.386 780.19 185.658C772.583 171.423 755.909 166.945 743.775 166.945C720.162 166.945 708.674 176.649 700.1 184.74V168.485H660.073V265.609L700.1 265.616V213.212C708.349 205.122 716.599 200.916 726.468 200.916C740.703 200.916 745.068 208.032 745.068 224.692V265.616H785.095L785.038 212.185C793.287 204.098 800.389 200.916 810.259 200.916C824.493 200.916 828.861 208.032 828.861 224.692V265.616H868.892V207.223C868.892 173.74 844.554 166.945 827.569 166.945M599.512 220.342C591.987 227.542 579.984 232.504 568.624 232.504C551.335 232.504 545.413 225.462 545.413 208.978V168.485H505.386V224.664C505.386 259.394 531.489 266.114 553.097 266.114C573.264 266.114 587.986 259.712 599.512 251.71L599.509 265.616H639.539L639.543 168.485H599.512V220.342ZM333.212 201.591C328.596 195.03 318.68 191.982 308.164 191.982C297.641 191.982 287.835 195.03 283.58 201.591H333.212ZM375.103 223.63H281.591C284.876 234.146 295.89 236.773 306.738 236.773C317.416 236.773 323.328 236.226 328.988 233.277L372.543 233.281C366.204 256.598 345.13 268 306.738 268C268.116 268 241.324 253.536 241.324 217.051C241.324 180.569 268.116 166.105 308.38 166.105C348.975 166.105 375.103 180.569 375.103 223.63M447.466 137.993H407.435V168.485H385.951V200.941H407.435V265.616H487.489V233.065H447.466V200.941H487.489V168.485H447.466V137.993ZM224.632 210.882V265.616H184.605V227.097C184.605 209.918 178.793 202.583 160.78 202.583C148.943 202.583 136.431 207.753 128.592 215.26V265.616H88.5649V168.485H128.592V182.568C140.605 174.227 155.942 167.556 176.96 167.556C199.479 167.556 224.632 174.69 224.632 210.882" fill="#231F20"/>
<path d="M948.946 225.593H908.919V265.616H948.946V225.593ZM948.946 145.535V185.562H988.973V225.593H1029V145.535H948.946Z" fill="#231F20"/>
</svg>
