<?xml version="1.0" encoding="UTF-8" standalone="no"?>
<svg
   xmlns:dc="http://purl.org/dc/elements/1.1/"
   xmlns:cc="http://creativecommons.org/ns#"
   xmlns:rdf="http://www.w3.org/1999/02/22-rdf-syntax-ns#"
   xmlns:svg="http://www.w3.org/2000/svg"
   xmlns="http://www.w3.org/2000/svg"
   viewBox="0 0 1044 466.66666"
   height="466.66666"
   width="1044"
   xml:space="preserve"
   id="svg2"
   version="1.1"><metadata
     id="metadata8"><rdf:RDF><cc:Work
         rdf:about=""><dc:format>image/svg+xml</dc:format><dc:type
           rdf:resource="http://purl.org/dc/dcmitype/StillImage" /></cc:Work></rdf:RDF></metadata><defs
     id="defs6"><clipPath
       id="clipPath18"
       clipPathUnits="userSpaceOnUse"><path
         id="path16"
         d="M 0,350 H 783 V 0 H 0 Z" /></clipPath></defs><g
     transform="matrix(1.3333333,0,0,-1.3333333,0,466.66667)"
     id="g10"><g
       id="g12"><g
         clip-path="url(#clipPath18)"
         id="g14"><g
           transform="translate(179.3535,100.2632)"
           id="g20"><path
             id="path22"
             style="fill:#231f20;fill-opacity:1;fill-rule:nonzero;stroke:none"
             d="M 0,0 V 97.108 H -21.786 V 42.412 L -63.929,97.108 H -80.506 V 0 h 21.712 V 53.268 L -16.894,0 Z m 98.133,20.517 c 15.494,0 28.055,12.561 28.055,28.055 0,15.495 -12.561,28.056 -28.055,28.056 -15.495,0 -28.056,-12.561 -28.056,-28.056 0,-15.494 12.561,-28.055 28.056,-28.055 m 0.048,78.591 C 126.105,99.081 148.72,76.423 148.693,48.499 148.666,20.575 126.007,-2.04 98.084,-2.013 70.179,-1.986 47.572,20.643 47.572,48.548 c 0,27.924 22.637,50.56 50.561,50.56 M 393.847,0.037 v 21.236 h -43.18 V 97.108 H 328.954 V 0 Z m -143.204,22.7 c -2.146,-1.854 -5.358,-2.781 -9.636,-2.781 h -21.2 v 19.175 h 21.59 c 4.066,0 7.153,-0.764 9.259,-2.293 2.146,-1.54 3.357,-4.071 3.208,-6.709 0.091,-2.799 -1.088,-5.489 -3.208,-7.319 m -30.861,34.703 v 19.883 h 18.126 c 4.196,0 7.343,-0.813 9.441,-2.44 2.127,-1.676 3.302,-4.285 3.147,-6.989 0.145,-2.917 -1.06,-5.738 -3.269,-7.648 -2.179,-1.854 -5.286,-2.781 -9.319,-2.781 z m 51.231,-15.82 c -2.704,4.233 -6.984,7.214 -11.893,8.282 3.89,1.544 7.07,4.472 8.929,8.221 2.178,4.009 3.307,8.503 3.281,13.064 0,8.002 -2.655,14.309 -7.965,18.919 -5.31,4.611 -12.678,6.921 -22.103,6.929 h -43.18 v -97.12 h 45.742 c 9.685,0 17.333,2.439 22.944,7.319 5.611,4.879 8.417,11.425 8.417,19.638 0.09,5.208 -1.361,10.326 -4.172,14.711" /></g><g
           transform="translate(720.834,195.8347)"
           id="g24"><path
             id="path26"
             style="fill:#4dc5de;fill-opacity:1;fill-rule:nonzero;stroke:none"
             d="m 0,0 c 0,-4.94 -4.106,-8.945 -9.17,-8.945 -5.065,0 -9.17,4.005 -9.17,8.945 0,4.94 4.105,8.945 9.17,8.945 C -4.106,8.945 0,4.94 0,0" /></g><g
           transform="translate(682.2086,195.9129)"
           id="g28"><path
             id="path30"
             style="fill:#4dc5de;fill-opacity:1;fill-rule:nonzero;stroke:none"
             d="m 0,0 c 0,-6.127 -4.967,-11.094 -11.094,-11.094 -6.127,0 -11.094,4.967 -11.094,11.094 0,6.127 4.967,11.094 11.094,11.094 C -4.967,11.094 0,6.127 0,0" /></g><g
           transform="translate(718.4199,276.9028)"
           id="g32"><path
             id="path34"
             style="fill:#4dc5de;fill-opacity:1;fill-rule:nonzero;stroke:none"
             d="m 0,0 c 0,-3.618 -2.933,-6.55 -6.55,-6.55 -3.618,0 -6.55,2.932 -6.55,6.55 0,3.618 2.932,6.55 6.55,6.55 C -2.933,6.55 0,3.618 0,0" /></g><g
           transform="translate(678.5476,276.8341)"
           id="g36"><path
             id="path38"
             style="fill:#4dc5de;fill-opacity:1;fill-rule:nonzero;stroke:none"
             d="m 0,0 c 0,-4.1 -3.324,-7.424 -7.424,-7.424 -4.099,0 -7.423,3.324 -7.423,7.424 0,4.1 3.324,7.424 7.423,7.424 C -3.324,7.424 0,4.1 0,0" /></g><g
           transform="translate(639.5597,276.6968)"
           id="g40"><path
             id="path42"
             style="fill:#4dc5de;fill-opacity:1;fill-rule:nonzero;stroke:none"
             d="m 0,0 c 0,-5.065 -4.106,-9.17 -9.17,-9.17 -5.065,0 -9.17,4.105 -9.17,9.17 0,5.065 4.105,9.17 9.17,9.17 C -4.106,9.17 0,5.065 0,0" /></g><g
           transform="translate(719.2246,236.1572)"
           id="g44"><path
             id="path46"
             style="fill:#4dc5de;fill-opacity:1;fill-rule:nonzero;stroke:none"
             d="m 0,0 c 0,-4.1 -3.324,-7.424 -7.424,-7.424 -4.099,0 -7.423,3.324 -7.423,7.424 0,4.1 3.324,7.424 7.423,7.424 C -3.324,7.424 0,4.1 0,0" /></g><g
           transform="translate(680.4316,236.0695)"
           id="g48"><path
             id="path50"
             style="fill:#4dc5de;fill-opacity:1;fill-rule:nonzero;stroke:none"
             d="m 0,0 c 0,-4.94 -4.106,-8.945 -9.17,-8.945 -5.065,0 -9.17,4.005 -9.17,8.945 0,4.94 4.105,8.945 9.17,8.945 C -4.106,8.945 0,4.94 0,0" /></g><g
           transform="translate(641.6302,236.1477)"
           id="g52"><path
             id="path54"
             style="fill:#4dc5de;fill-opacity:1;fill-rule:nonzero;stroke:none"
             d="m 0,0 c 0,-6.127 -4.967,-11.094 -11.094,-11.094 -6.127,0 -11.094,4.967 -11.094,11.094 0,6.127 4.967,11.094 11.094,11.094 C -4.967,11.094 0,6.127 0,0" /></g><g
           transform="translate(616.8711,216.0099)"
           id="g56"><path
             id="path58"
             style="fill:#231f20;fill-opacity:1;fill-rule:nonzero;stroke:none"
             d="m 0,0 c -20.548,0.015 -37.216,-16.631 -37.231,-37.178 -0.012,-17.129 11.672,-32.053 28.304,-36.151 l 9.23,15.162 h -0.91 c -12.089,-0.019 -21.906,9.767 -21.924,21.857 -0.019,12.09 9.766,21.906 21.856,21.925 12.09,0.019 21.906,-9.767 21.925,-21.857 0.006,-3.769 -0.962,-7.476 -2.809,-10.761 L 1.744,-74.258 C 22.27,-73.332 38.16,-55.942 37.235,-35.415 36.337,-15.498 19.899,0.057 -0.038,0 Z m 11.523,-36.428 c 0,-6.699 -5.43,-12.129 -12.13,-12.129 -6.699,0 -12.129,5.43 -12.129,12.129 0,6.7 5.43,12.13 12.129,12.13 6.7,0 12.13,-5.43 12.13,-12.13" /></g></g></g></g></svg>