<svg width="140" height="32" viewBox="0 0 140 32" fill="none" xmlns="http://www.w3.org/2000/svg"><path fill-rule="evenodd" clip-rule="evenodd" d="M137.891 4.27012C137.474 4.27012 137.066 4.14485 136.719 3.91017C136.372 3.67548 136.102 3.34192 135.942 2.95168C135.783 2.56144 135.741 2.13206 135.823 1.71785C135.904 1.30364 136.105 0.92321 136.4 0.624691C136.696 0.326171 137.072 0.122972 137.481 0.0407998C137.89 -0.0413726 138.314 0.00117352 138.699 0.163055C139.085 0.324936 139.414 0.59888 139.645 0.950232C139.877 1.30158 140 1.71456 140 2.13691C139.999 2.70269 139.776 3.24499 139.381 3.64489C138.986 4.04478 138.45 4.26963 137.891 4.27012ZM137.891 0.318502C137.536 0.318502 137.189 0.42515 136.893 0.624959C136.598 0.824769 136.368 1.10876 136.232 1.44104C136.096 1.77331 136.06 2.13893 136.129 2.49166C136.199 2.8444 136.37 3.16841 136.621 3.42272C136.872 3.67703 137.192 3.85022 137.541 3.92038C137.889 3.99055 138.25 3.95453 138.578 3.8169C138.907 3.67927 139.187 3.4462 139.385 3.14717C139.582 2.84813 139.687 2.49656 139.687 2.13691C139.687 1.65464 139.498 1.19212 139.161 0.851101C138.824 0.510083 138.367 0.318502 137.891 0.318502ZM28.9129 12.7886C29.1222 12.6451 29.2819 12.439 29.3696 12.199L34.1892 0.00161743H38.1035L32.7442 13.5656C32.3844 14.4875 31.7583 15.278 30.9478 15.834C30.1372 16.39 29.1799 16.6855 28.2008 16.6821H28.1679C27.183 16.6793 26.2221 16.374 25.4122 15.8067C24.6023 15.2393 23.9815 14.4366 23.6318 13.5045L20.226 4.53838C20.1342 4.29837 19.9728 4.09208 19.7631 3.94661C19.5533 3.80114 19.3051 3.7233 19.0508 3.7233C18.7966 3.7233 18.5483 3.80114 18.3386 3.94661C18.1288 4.09208 17.9674 4.29837 17.8756 4.53838L14.4699 13.5045C14.1199 14.4372 13.4985 15.2403 12.6879 15.8077C11.8773 16.3751 10.9156 16.68 9.93009 16.6821H9.89717C8.91903 16.6844 7.96289 16.3883 7.15342 15.8324C6.34395 15.2765 5.71871 14.4866 5.35921 13.5656L0 0.00161743H3.91607L8.73021 12.2027C8.81793 12.4427 8.97762 12.6488 9.18689 12.7923C9.39616 12.9358 9.64452 13.0093 9.89717 13.0027H9.9118C10.1664 13.0078 10.4161 12.9317 10.6255 12.7852C10.835 12.6386 10.9936 12.429 11.0788 12.1861L14.479 3.21624C14.8343 2.28155 15.4609 1.47777 16.2764 0.910843C17.0919 0.343917 18.0579 0.0404544 19.0472 0.0404544C20.0364 0.0404544 21.0024 0.343917 21.8179 0.910843C22.6334 1.47777 23.26 2.28155 23.6153 3.21624L27.021 12.1824C27.1063 12.4253 27.2648 12.6349 27.4743 12.7815C27.6837 12.928 27.9334 13.0041 28.188 12.999H28.2026C28.4553 13.0056 28.7036 12.9321 28.9129 12.7886ZM53.6618 16.5712H49.7457L56.292 0.00184954H60.2099L53.6618 16.5712ZM95.2098 0.00184954V3.68496H86.1174V16.5712H82.4793V3.68496H73.387V3.6757L74.8374 0.00184954H95.2098ZM127.942 16.5712V10.0142H113.394V16.5712H109.758V10.0142V6.33295V0.00184954H113.394V6.33106H127.942V0.00184954H131.58V6.33295V10.0142V16.5712H127.942ZM138.634 2.2113C138.681 2.17639 138.719 2.13135 138.747 2.07946C138.805 1.96251 138.832 1.83238 138.825 1.70171C138.834 1.56194 138.802 1.42264 138.732 1.30173C138.675 1.21531 138.595 1.14677 138.502 1.1039C138.409 1.06102 138.305 1.04552 138.203 1.05915H137.018V3.20902H137.475V2.37204H138.037L138.45 3.20717H138.973L138.476 2.2813C138.533 2.27013 138.587 2.24622 138.634 2.2113ZM138.097 1.45728C138.225 1.45728 138.306 1.49246 138.342 1.56838C138.362 1.62553 138.37 1.6858 138.368 1.74615C138.368 1.80304 138.358 1.85951 138.339 1.9128C138.314 1.9454 138.281 1.97079 138.244 1.9864C138.206 2.002 138.165 2.00728 138.125 2.00169H137.479V1.45728H138.097ZM81.7892 31.8777C79.9199 31.8777 79.0145 31.5241 78.795 30.5612C78.7588 30.3508 78.741 30.1377 78.742 29.9242H79.9254C79.9199 30.0601 79.9341 30.1961 79.9675 30.3278C80.0772 30.7426 80.6845 30.8834 81.7965 30.8834C83.0019 30.8834 83.4116 30.6186 83.4116 30.0816C83.4116 29.5445 82.9726 29.3871 81.9319 29.2168C81.7892 29.1946 80.8728 29.0464 80.6954 29.0131C79.3474 28.7964 78.784 28.302 78.7877 27.228C78.7877 26.2318 79.6419 25.4726 81.5313 25.4781C83.1116 25.4781 83.9841 25.8744 84.2749 26.7151C84.3358 26.9602 84.3647 27.2123 84.3609 27.465H83.2013C83.2077 27.3173 83.1892 27.1695 83.1464 27.028C83.0147 26.7706 82.5721 26.5225 81.5002 26.5206C80.3278 26.5206 79.9638 26.7966 79.962 27.2336C79.962 27.6354 80.2144 27.8261 81.2313 27.9965C81.3978 28.0206 82.3928 28.1668 82.5245 28.1909C83.9878 28.4168 84.5914 28.9112 84.5877 29.9853C84.5877 31.2019 83.7921 31.8833 81.7892 31.8777ZM91.4189 31.9129C92.381 31.9148 93.0998 31.6944 93.5882 31.3241C94.1516 30.8889 94.4844 30.2964 94.4863 29.8742H93.3248C93.3017 30.0199 93.2455 30.1583 93.1608 30.2784C93.0761 30.3985 92.9651 30.4972 92.8364 30.5667C92.4052 30.7996 91.92 30.9109 91.4317 30.8889C90.867 30.9142 90.3141 30.7201 89.8861 30.3464C89.5645 30.0316 89.3785 29.6011 89.3685 29.1483L94.521 29.1612C94.6235 28.2317 94.4479 27.2243 93.9851 26.6299C93.4894 25.9466 92.6499 25.4929 91.4006 25.4929C90.2391 25.4911 89.3703 25.9355 88.8216 26.6299C88.3891 27.222 88.169 27.9458 88.1979 28.6816C88.196 29.5871 88.3936 30.2482 88.8015 30.776C89.4179 31.5722 90.3032 31.9129 91.4189 31.9129ZM91.3915 26.5392C92.1322 26.541 92.6169 26.7558 92.937 27.0799C93.0767 27.235 93.1838 27.4173 93.2517 27.6156C93.3196 27.8139 93.347 28.0242 93.3321 28.2335L89.374 28.2243C89.3777 28.0085 89.424 27.7956 89.5101 27.5982C89.5961 27.4007 89.7202 27.2226 89.8751 27.0743C90.2913 26.7008 90.8361 26.5086 91.3915 26.5392ZM103.095 27.978C103.09 27.6755 102.985 27.3834 102.797 27.1484C102.5 26.8225 101.992 26.6096 101.229 26.6077C100.532 26.6077 100.068 26.7836 99.7017 27.141C99.3359 27.4984 99.2024 28.0576 99.2005 28.7409C99.2005 29.4816 99.3414 30.0371 99.7163 30.3871C100.047 30.713 100.556 30.8815 101.253 30.8834C101.984 30.8834 102.469 30.6612 102.756 30.3834C102.964 30.1773 103.093 29.904 103.122 29.6112H104.271C104.25 30.2054 103.999 30.7675 103.572 31.176C103.106 31.6222 102.343 31.9167 101.225 31.9167C100.208 31.9167 99.4566 31.6667 98.9061 31.1611C98.3208 30.6334 98.0025 29.8501 98.0043 28.7076C98.0043 27.6891 98.308 26.917 98.8274 26.3929C99.4146 25.8133 100.212 25.5115 101.341 25.5152C102.689 25.5152 103.473 25.9781 103.98 26.7855C104.182 27.1472 104.283 27.5572 104.274 27.9724L103.095 27.978ZM112.617 31.8519H113.765C113.744 31.8412 113.743 31.7382 113.737 30.9206L113.736 30.8167L113.749 25.6911H112.554V29.6187C112.553 30.4149 111.878 30.9149 110.937 30.9149C109.92 30.913 109.315 30.5316 109.315 29.5242C109.324 25.73 109.324 25.6856 109.302 25.6856H108.097C108.11 25.7078 108.11 26.0096 108.11 29.8705C108.106 31.1926 109.033 31.9481 110.438 31.9481C111.289 31.95 112.174 31.7389 112.585 31.0686L112.617 31.8519ZM122.369 26.9483C121.929 26.8138 121.47 26.7513 121.01 26.7632C120.004 26.7632 119.181 27.4539 119.181 28.6297V31.8629H117.976L117.991 25.7077H119.174V26.7595C119.342 26.0669 120.271 25.5762 121.244 25.5781C121.628 25.5688 122.01 25.6111 122.382 25.704L122.369 26.9483ZM128.606 32C129.567 32.0018 130.285 31.7815 130.774 31.4111C131.348 30.976 131.672 30.3834 131.672 29.9668H130.512C130.489 30.1126 130.433 30.2511 130.348 30.3713C130.264 30.4914 130.153 30.59 130.024 30.6593C129.592 30.8915 129.107 31.0027 128.619 30.9815C128.054 31.0066 127.501 30.8133 127.072 30.4408C126.75 30.1254 126.565 29.6941 126.556 29.2409L131.707 29.2539C131.809 28.3243 131.633 27.3169 131.171 26.7225C130.675 26.0392 129.835 25.5856 128.586 25.5856C127.427 25.5837 126.558 26.03 126.009 26.7225C125.577 27.3129 125.356 28.0345 125.383 28.7687C125.382 29.6742 125.579 30.3353 125.987 30.863C126.605 31.6593 127.489 32 128.606 32ZM128.584 26.6281C129.325 26.6281 129.812 26.8429 130.132 27.1688C130.271 27.3242 130.378 27.5065 130.446 27.7048C130.513 27.903 130.541 28.1131 130.527 28.3224L126.569 28.3132C126.572 28.0973 126.618 27.8843 126.704 27.6865C126.79 27.4888 126.914 27.3103 127.068 27.1614C127.484 26.7886 128.029 26.597 128.584 26.6281Z" fill="currentColor"></path></svg>